# xmcd
#
# Track frame offsets: 
#        150
#        11733
#        22301
#        33938
#        45029
#        53429
#        64618
#        76278
#        87212
#        99764
#        112332
#        123973
#        135906
#        144993
#        154174
#        165966
#        174544
#        187019
#        198688
#        209474
#        218319
#        233300
#        242011
#        253556
#        265785
#
# Disc length: 3717 seconds
#
# Revision: 2
# Processed by: cddbd v1.5.2PL0 Copyright (c) Steve Scherf et al.
# Submitted via: ExactAudioCopyFreeDBPlugin 1.0
#
DISCID=3b0e8319
DTITLE=Various Artist - Phil Spector:  The Anthology, '59 - '62 [Not 
DTITLE=Now Records]
DYEAR=2013
DGENRE=Rhythm and Blues
TTITLE0=Gene Pitney - Dream for Sale
TTITLE1=Ben E. King - Young Boy Blues
TTITLE2=The Crystals - He Hit Me (And It Felt Like a Kiss)
TTITLE3=Johnny Nash - A World of Tears
TTITLE4=The Teddy Bears - Til You're Mine
TTITLE5=Arlene Smith - He Knows I Love Him Too Much
TTITLE6=Curtis Lee - Beverly Jean
TTITLE7=The Top Notes - Always Late (Why Lead Me On)
TTITLE8=Billy Storm - A Kiss from Your Lips
TTITLE9=The Creations - Shang Shang
TTITLE10=The Ducanes - I'm So Happy (Tra-La-La)
TTITLE11=Jean DuShon - Talk to Me, Talk to Me
TTITLE12=The Crystals - I Love You Eddie
TTITLE13=The Teddy Bears - Tammy
TTITLE14=Karen Lake - Air Mail Special Delivery
TTITLE15=Kell Osborne - That's Alright Baby
TTITLE16=Obrey Wilson - Hey There Mountain
TTITLE17=The Paris Sisters - He Knows I Love Him Too Much
TTITLE18=Ray Peterson - Why Don't You Write Me
TTITLE19=Spector's Three - Mr. Robin
TTITLE20=Curtis Lee - Gee How I Wish You Were Here
TTITLE21=The Teddy Bears - If I Give My Heart to You
TTITLE22=The Castle Kings - Loch Lomond
TTITLE23=The Crystals - What a Nice Way to Turn Seventeen
TTITLE24=The Top Notes - The Basic Things
EXTD=Not Now NOT3CD091
EXTT0=
EXTT1=
EXTT2=
EXTT3=
EXTT4=
EXTT5=
EXTT6=
EXTT7=
EXTT8=
EXTT9=
EXTT10=
EXTT11=
EXTT12=
EXTT13=
EXTT14=
EXTT15=
EXTT16=
EXTT17=
EXTT18=
EXTT19=
EXTT20=
EXTT21=
EXTT22=
EXTT23=
EXTT24=
PLAYORDER=
